<svg width="35" height="35" viewBox="0 0 35 35" fill="none" xmlns="http://www.w3.org/2000/svg">
<path d="M5.75 18.9169H14.25V16.0836H5.75V3.11544C5.75002 2.99235 5.78212 2.87139 5.84312 2.76449C5.90413 2.65758 5.99194 2.56842 6.0979 2.50579C6.20386 2.44315 6.32431 2.40921 6.44739 2.40731C6.57046 2.40541 6.6919 2.43561 6.79975 2.49494L32.9542 16.8798C33.0653 16.9409 33.1579 17.0308 33.2224 17.1399C33.2869 17.249 33.3209 17.3735 33.3209 17.5003C33.3209 17.627 33.2869 17.7515 33.2224 17.8606C33.1579 17.9698 33.0653 18.0596 32.9542 18.1208L6.79975 32.5056C6.6919 32.5649 6.57046 32.5951 6.44739 32.5932C6.32431 32.5913 6.20386 32.5574 6.0979 32.4948C5.99194 32.4321 5.90413 32.343 5.84312 32.2361C5.78212 32.1291 5.75002 32.0082 5.75 31.8851V18.9169Z" fill="white"/>
</svg>
