<svg width="46" height="46" viewBox="0 0 46 46" fill="none" xmlns="http://www.w3.org/2000/svg">
<path d="M23.7937 9.58333H40.2502C40.7585 9.58333 41.246 9.78527 41.6054 10.1447C41.9649 10.5042 42.1668 10.9917 42.1668 11.5V38.3333C42.1668 38.8417 41.9649 39.3292 41.6054 39.6886C41.246 40.0481 40.7585 40.25 40.2502 40.25H5.75016C5.24183 40.25 4.75432 40.0481 4.39487 39.6886C4.03543 39.3292 3.8335 38.8417 3.8335 38.3333V7.66667C3.8335 7.15833 4.03543 6.67082 4.39487 6.31138C4.75432 5.95193 5.24183 5.75 5.75016 5.75H19.9603L23.7937 9.58333ZM23.0002 24.9167C24.271 24.9167 25.4898 24.4118 26.3884 23.5132C27.287 22.6146 27.7918 21.3958 27.7918 20.125C27.7918 18.8542 27.287 17.6354 26.3884 16.7368C25.4898 15.8382 24.271 15.3333 23.0002 15.3333C21.7293 15.3333 20.5106 15.8382 19.6119 16.7368C18.7133 17.6354 18.2085 18.8542 18.2085 20.125C18.2085 21.3958 18.7133 22.6146 19.6119 23.5132C20.5106 24.4118 21.7293 24.9167 23.0002 24.9167ZM15.3335 34.5H30.6668C30.6668 32.4667 29.8591 30.5166 28.4213 29.0788C26.9835 27.6411 25.0335 26.8333 23.0002 26.8333C20.9668 26.8333 19.0168 27.6411 17.579 29.0788C16.1412 30.5166 15.3335 32.4667 15.3335 34.5Z" fill="#7F62FF"/>
</svg>
