<svg width="46" height="46" viewBox="0 0 46 46" fill="none" xmlns="http://www.w3.org/2000/svg">
<g clip-path="url(#clip0_869_2396)">
<path d="M21.0833 3.83398C28.8803 3.83398 35.3165 9.65298 36.2902 17.1836L40.6027 23.9667C40.8863 24.4132 40.8288 25.0783 40.1714 25.362L36.4167 26.9681V32.584C36.4167 34.7019 34.7012 36.4173 32.5833 36.4173H28.7519L28.75 42.1673H11.5V35.0872C11.5 32.8255 10.6643 30.6846 9.11567 28.7526C7.00925 26.1267 5.75 22.7936 5.75 19.1673C5.75 10.6995 12.6155 3.83398 21.0833 3.83398ZM21.0833 13.4173C20.0253 13.4173 19.1667 14.276 19.1667 15.334V17.2487L17.25 17.2507C16.192 17.2507 15.3333 18.1093 15.3333 19.1673C15.3333 20.2253 16.192 21.084 17.25 21.084L19.1667 21.0821V23.0007C19.1667 24.0587 20.0253 24.9173 21.0833 24.9173C22.1413 24.9173 23 24.0587 23 23.0007V21.084H24.9167C25.9747 21.084 26.8333 20.2253 26.8333 19.1673C26.8333 18.1093 25.9747 17.2507 24.9167 17.2507H23V15.334C23 14.276 22.1413 13.4173 21.0833 13.4173Z" fill="#62B8FF"/>
</g>
<defs>
<clipPath id="clip0_869_2396">
<rect width="46" height="46" fill="white"/>
</clipPath>
</defs>
</svg>
