<svg width="44" height="44" viewBox="0 0 44 44" fill="none" xmlns="http://www.w3.org/2000/svg">
<rect width="44" height="44" rx="22" fill="white"/>
<rect x="0.611111" y="0.611111" width="42.7778" height="42.7778" rx="21.3889" stroke="#EAEAEA" stroke-opacity="0.4" stroke-width="1.22222"/>
<path fill-rule="evenodd" clip-rule="evenodd" d="M28.0227 15.9779C28.3956 16.3508 28.3956 16.9554 28.0227 17.3283L17.3283 28.0227C16.9554 28.3956 16.3508 28.3956 15.9779 28.0227C15.605 27.6498 15.605 27.0453 15.9779 26.6723L26.6723 15.9779C27.0453 15.605 27.6498 15.605 28.0227 15.9779Z" fill="black"/>
<path fill-rule="evenodd" clip-rule="evenodd" d="M15.9779 15.9779C16.3508 15.605 16.9554 15.605 17.3283 15.9779L28.0227 26.6723C28.3956 27.0453 28.3956 27.6498 28.0227 28.0227C27.6498 28.3956 27.0453 28.3956 26.6723 28.0227L15.9779 17.3283C15.605 16.9554 15.605 16.3508 15.9779 15.9779Z" fill="black"/>
</svg>
