<svg width="290" height="318" xmlns="http://www.w3.org/2000/svg" xmlns:xlink="http://www.w3.org/1999/xlink" xml:space="preserve" overflow="hidden"><g transform="translate(-624 -60)"><path d="M-14817.4-11026.1C-14802.5-11035-14745.5-11025.8-14701.9-11023.4-14666.9-11028-14644.1-11027.9-14636.2-11022.5-14618.3-11010.6-14615.8-10972.1-14659.3-10948.1-14679.7-10937.7-14807.2-10930.1-14826.5-10949.5-14850.1-10973.1-14844-11010-14817.4-11026.1Z" fill="#FFFFFF" transform="matrix(1 0 0 1.00256 15495.6 11317.2)"/><path d="M-14623.9-11023.6C-14632-11031.6-14642.6-11035-14650.2-11036.3-14660.7-11037.9-14672-11039.9-14681.8-11034.8-14684.1-11034-14685.6-11031.9-14685.9-11029.5-14732.4-11027.1-14781.5-11056.3-14825.4-11032.6-14865.9-11010.1-14857.7-10943.2-14811.4-10932.1-14784.5-10924.2-14755.4-10927.4-14728-10926.6-14684.6-10926-14632.5-10933.4-14615.2-10978.5-14609.8-10993.6-14611.9-11012.1-14623.9-11023.6ZM-14781.7-11022.5-14781.7-11022.5C-14771.8-11022.4-14761.9-11021.6-14752-11020.4-14751.3-11020.3-14747.1-11019.7-14746.3-11019.6-14746.9-11014.7-14747.1-11009.7-14747-11004.6-14747-10998.9-14747.1-10994.2-14747.1-10988.2-14761.7-10987.6-14776.1-10987.1-14790.8-10986.4-14791.9-10992.9-14792.5-10997.6-14792.9-11004-14793.1-11010-14793.9-11015.9-14795.3-11021.7-14790.6-11022.4-14786.4-11022.5-14781.7-11022.5ZM-14800.8-11020.6C-14804.2-11009.3-14803.5-10997.3-14804-10985.8-14812.7-10985.5-14822-10985.1-14831-10984-14833-11002.8-14816.6-11018.3-14800.8-11020.6ZM-14830.7-10980.6C-14821.5-10979.7-14812.1-10979.5-14804-10979.4-14804.1-10971.4-14803.6-10963.5-14802.5-10955.7-14802.3-10953.4-14801.1-10951.4-14799.1-10950.3-14798.8-10950.2-14798.1-10950-14798.2-10949.9-14798.2-10949.8-14799.7-10950.3-14800.5-10950.5-14818.4-10954.6-14828.6-10964.5-14830.7-10980.6ZM-14794-10949.2C-14794.3-10949.3-14794.3-10949.6-14794-10949.7-14789.1-10950.4-14784.9-10955.1-14786-10960.2-14786.8-10964.5-14787.6-10968.9-14788.5-10973.1L-14788.5-10973.1C-14788.8-10975.1-14789.2-10977.2-14789.5-10979.2-14775.8-10978.9-14760.5-10979.1-14747-10979.4-14747-10972.4-14746.5-10965.7-14746.5-10958.7-14746.6-10955-14746.4-10951.3-14745.9-10947.7-14761.9-10947.6-14778.1-10947-14794-10949.2ZM-14682.6-10978-14682.6-10977.9C-14682.9-10973.9-14683.2-10969.7-14683.3-10965.7-14683.4-10961.7-14683.8-10957.8-14684.3-10954-14685.5-10953-14686.2-10951.6-14686.3-10950-14699.9-10947.8-14713.6-10947.2-14727.4-10947.4L-14727.4-10947.5C-14727.9-10948.8-14728.8-10949.9-14730.2-10950.4L-14730.1-10950.9C-14730-10952.2-14730.2-10953.4-14730.5-10954.6-14732.1-10963.1-14732.9-10971.2-14734-10979.6-14716.3-10979.9-14699-10980.4-14682.4-10981-14682.5-10980-14682.5-10978.9-14682.6-10978ZM-14681.7-10991.3C-14701.5-10990.3-14719.4-10989.5-14735.1-10988.7-14736.1-10997-14737-11005.5-14737.6-11013.3L-14737.6-11013.3C-14737.8-11015.1-14738-11017-14738.2-11018.8L-14738.2-11018.8C-14718.5-11017.2-14700.9-11018.1-14681.6-11020.7-14681.1-11020.4-14680.5-11020-14679.9-11019.7L-14679.3-11019.5C-14680.4-11010-14681-11000.5-14681.7-10991.3ZM-14671.2-10953.8C-14671.8-10957.7-14672.2-10961.5-14672.3-10965.4-14672.6-10969.8-14672.9-10974.4-14673.2-10978.9L-14673.2-10978.9C-14673.3-10979.8-14673.4-10980.6-14673.4-10981.4-14666.1-10981.7-14658.6-10982.2-14651.3-10982.2-14650.6-10982.2-14649.3-10982.2-14648.6-10982.2-14644.4-10982.1-14640.2-10982.5-14636-10983.2-14642.7-10968.6-14655-10959.6-14671.2-10953.8ZM-14650.9-10993.3C-14657.8-10992.4-14667-10992.2-14674.1-10991.7-14674.6-11000.6-14675-11009.4-14675.8-11018.4-14675.8-11018.4-14675.8-11018.4-14675.8-11018.4L-14675.8-11018.4-14675.8-11018.4C-14671.6-11017.5-14667.4-11016.9-14663.1-11016.6-14648.5-11016.7-14631.3-11009.7-14633.5-10993.2-14639.2-10994.7-14645.1-10993.9-14650.9-10993.3Z" transform="matrix(1 0 0 1.00256 15495.6 11317.2)"/><path d="M-14699-11050.9C-14709.8-11050.5-14721.5-11057-14717.2-11067.9-14715.7-11071.7-14712.1-11074.8-14707.9-11074.8-14706-11074.8-14704.2-11074.2-14702.5-11073.1-14700.4-11071.7-14697.7-11071.2-14695.2-11071.3-14690.3-11071.5-14685.4-11072.4-14680.7-11073.8-14676.7-11074.9-14671.4-11077.8-14669-11082.3-14666-11088.2-14669.5-11093.9-14676-11095.9-14679.4-11096.9-14683-11097.5-14686.5-11097.6-14687.1-11097.6-14687.8-11097.6-14688.4-11097.6-14693.4-11097.5-14698.5-11097-14703.5-11096.2-14706.7-11095.8-14710.1-11095.3-14713.3-11095.1-14714-11095-14714.5-11095.5-14714.7-11096.1-14714.9-11096.7-14714.6-11097.4-14714.1-11097.7-14709-11100.5-14703.6-11102.7-14698-11104.2-14687-11107.5-14670.6-11109.3-14661.4-11102.8-14650.7-11095.9-14650.4-11078.1-14658.4-11068.6-14668.9-11056.2-14681-11052.3-14699-11050.9L-14699-11050.9Z" transform="matrix(1 0 0 1.00256 15495.6 11317.2)"/><path d="M-14621.4-11095.5C-14622.4-11095.5-14623.4-11095.6-14624.4-11095.9-14626.2-11096.4-14627.9-11097.5-14629.1-11099-14630.3-11100.6-14631-11102.5-14631-11104.4-14630.7-11108.9-14630.4-11114.5-14632.3-11119.7-14633.9-11124.3-14637.9-11127.7-14642.7-11128.4-14651.9-11130.6-14658-11121.3-14657.9-11112.5-14660-11106.3-14667.1-11116.4-14667.3-11119.7-14671.6-11147-14634-11154.7-14620.3-11134.1-14613.3-11125-14610.7-11113.2-14613.5-11102-14614-11100.3-14615-11098.7-14616.5-11097.5-14617.8-11096.3-14619.5-11095.6-14621.4-11095.5L-14621.4-11095.5Z" transform="matrix(1 0 0 1.00256 15495.6 11317.2)"/><path d="M-14827.9-11099.6C-14832.9-11100.5-14834.8-11106.3-14834.9-11109.6-14834.1-11146.2-14786.9-11153.4-14770.8-11122.8-14762.3-11120.8-14765.7-11109.8-14770.2-11105.2-14775.1-11099.6-14785.2-11102.5-14787.2-11109.4-14792.3-11126.7-14814.1-11126-14819.7-11109.6-14821.3-11106.1-14823.4-11102.9-14826.2-11100.2-14826.6-11099.8-14827.2-11099.6-14827.9-11099.6Z" transform="matrix(1 0 0 1.00256 15495.6 11317.2)"/><path d="M-14855.9-11129.5C-14856.3-11129.6-14856.7-11129.9-14856.7-11130.4-14858.8-11152.1-14850.4-11174.8-14835.4-11190.6-14830.7-11195.3-14825.3-11199-14819.3-11201.6-14809.3-11206.2-14796.7-11209.2-14786.6-11203.3-14782.6-11200.7-14779.6-11196.9-14778.1-11192.4-14777.3-11189.8-14777.7-11187.1-14779-11184.8-14780.3-11182.5-14782.5-11180.8-14785.1-11180-14786.6-11179.8-14788.1-11179.7-14789.6-11179.7-14792.4-11179.7-14795.3-11180-14798.1-11180.6L-14798.1-11180.6C-14800.9-11181-14803.7-11181.4-14806.6-11181.4-14814-11181.4-14821.3-11179-14827.2-11174.6-14836.3-11167.6-14841-11157.4-14845.6-11147.6-14848.6-11141.4-14851.4-11134.4-14855.9-11129.5Z" transform="matrix(1 0 0 1.00256 15495.6 11317.2)"/><path d="M-14605.6-11145.6C-14617.5-11146-14620.8-11156.7-14624.1-11165.7-14632.7-11186.1-14659-11193-14679.9-11187.4-14680.3-11187.5-14680.6-11187.7-14680.8-11188-14681-11189.3-14679.3-11190.3-14678.9-11191.3-14677.3-11193.7-14675.4-11195.9-14673-11197.8-14650-11216-14615.5-11203-14602.2-11178.8-14600.9-11176.1-14600.1-11173.1-14598.7-11170.3-14594.9-11168.3-14592.3-11164.6-14591.6-11160.4-14590.4-11152.7-14598.1-11145.6-14605.6-11145.6Z" transform="matrix(1 0 0 1.00256 15495.6 11317.2)"/></g></svg>